HIERARCHY
ROOT Hips
{
  OFFSET 53.2593 93.6201 17.7838
  CHANNELS 6 Xposition Yposition Zposition Zrotation Xrotation Yrotation
  JOINT spine
  {
    OFFSET 0 7.4756 0.429885
    CHANNELS 3 Zrotation Xrotation Yrotation
    JOINT spine1
    {
      OFFSET 0 9.92301 0
      CHANNELS 3 Zrotation Xrotation Yrotation
      JOINT spine2
      {
        OFFSET 0 9.50804 0
        CHANNELS 3 Zrotation Xrotation Yrotation
        JOINT Neck
        {
          OFFSET 0 24.4111 1.16384
          CHANNELS 3 Zrotation Xrotation Yrotation
          JOINT Head
          {
            OFFSET 0 7.37523 0
            CHANNELS 3 Zrotation Xrotation Yrotation
            End Site
            {
              OFFSET 0 17.8522 -5.88741
            }
          }
        }
        JOINT RightShoulder
        {
          OFFSET -4.00356 10.2679 -0.557468
          CHANNELS 3 Zrotation Xrotation Yrotation
          JOINT RightArm
          {
            OFFSET 0 13.4673 0
            CHANNELS 3 Zrotation Xrotation Yrotation
            JOINT RightArmRoll
            {
              OFFSET 0 6.79858 0
              CHANNELS 3 Zrotation Xrotation Yrotation
              JOINT RightForeArm
              {
                OFFSET 0 19.8018 0
                CHANNELS 3 Zrotation Xrotation Yrotation
                JOINT RightForeArmRoll
                {
                  OFFSET 0 7.62905 0
                  CHANNELS 3 Zrotation Xrotation Yrotation
                  JOINT RightHand
                  {
                    OFFSET 0 15.3098 0
                    CHANNELS 3 Zrotation Xrotation Yrotation
                    End Site
                    {
                      OFFSET 0 0 0
                    }
                  }
                }
              }
            }
          }
        }
        JOINT LeftShoulder
        {
          OFFSET 4.00356 10.2679 -0.557468
          CHANNELS 3 Zrotation Xrotation Yrotation
          JOINT LeftArm
          {
            OFFSET 0 13.4673 0
            CHANNELS 3 Zrotation Xrotation Yrotation
            JOINT LeftArmRoll
            {
              OFFSET 0 6.79858 0
              CHANNELS 3 Zrotation Xrotation Yrotation
              JOINT LeftForeArm
              {
                OFFSET 0 19.8018 0
                CHANNELS 3 Zrotation Xrotation Yrotation
                JOINT LeftForeArmRoll
                {
                  OFFSET 0 7.62905 0
                  CHANNELS 3 Zrotation Xrotation Yrotation
                  JOINT LeftHand
                  {
                    OFFSET 0 15.3098 0
                    CHANNELS 3 Zrotation Xrotation Yrotation
                    End Site
                    {
                      OFFSET 0 0 0
                    }
                  }
                }
              }
            }
          }
        }
      }
    }
  }
  JOINT RightUpLeg
  {
    OFFSET -6.62609 -1.21505 -1.01927
    CHANNELS 3 Zrotation Xrotation Yrotation
    JOINT RightUpLegRoll
    {
      OFFSET 0 17.9517 0
      CHANNELS 3 Zrotation Xrotation Yrotation
      JOINT RightLeg
      {
        OFFSET 0 -22.2304 0
        CHANNELS 3 Zrotation Xrotation Yrotation
        JOINT RightLegRoll
        {
          OFFSET 0 22.3032 0
          CHANNELS 3 Zrotation Xrotation Yrotation
          JOINT RightFoot
          {
            OFFSET 0 18.5636 0
            CHANNELS 3 Zrotation Xrotation Yrotation
            JOINT RightToeBase
            {
              OFFSET 0 15.5183 0
              CHANNELS 3 Zrotation Xrotation Yrotation
              End Site
              {
                OFFSET 0.00657761 7.51538 -0.866263
              }
            }
          }
        }
      }
    }
  }
  JOINT LeftUpLeg
  {
    OFFSET 6.62609 -1.21505 -1.01927
    CHANNELS 3 Zrotation Xrotation Yrotation
    JOINT LeftUpLegRoll
    {
      OFFSET 0 17.9518 0
      CHANNELS 3 Zrotation Xrotation Yrotation
      JOINT LeftLeg
      {
        OFFSET 0 22.2303 0
        CHANNELS 3 Zrotation Xrotation Yrotation
        JOINT LeftLegRoll
        {
          OFFSET 0 22.5093 0
          CHANNELS 3 Zrotation Xrotation Yrotation
          JOINT LeftFoot
          {
            OFFSET 0 18.3575 0
            CHANNELS 3 Zrotation Xrotation Yrotation
            JOINT LeftToeBase
            {
              OFFSET 0 15.5183 0
              CHANNELS 3 Zrotation Xrotation Yrotation
              End Site
              {
                OFFSET -0.029478 7.51538 -0.866263
              }
            }
          }
        }
      }
    }
  }
}
MOTION
Frames: 10
Frame Time: 0.00208333
53.592 58.2598 -16.0122 1.40872 -18.2482 1.5131 0.35346 0.0452365 -0.271061 0.711536 4.09144 -0.608312 0.719957 5.73641 -0.620967 -18.5964 34.3746 6.82755 14.2538 -15.2186 1.84402 79.1202 2.0585 -1.51104 87.426 17.5774 19.3718 8.98963e-007 -8.19859e-008 -3.47304e-006 8.24247 0.0639022 -0.827385 7.40818e-007 5.17591e-007 -3.00592 8.02913 -4.95144 0.697677 -89.8949 0.982736 3.12207 -79.3916 12.8549 -30.9777 2.86695e-006 -7.37637e-007 1.69601e-005 -0.536868 2.51251 0.877181 -8.83056e-006 -1.02705e-005 3.01308 -8.03022 -4.95138 -0.697663 176.496 65.6334 13.7916 180 1.52481e-005 177.859 -89.6705 84.7737 89.2508 -4.82919e-006 -3.06388e-006 2.43924 -18.1015 63.7914 16.4029 8.68499 29.4377 -6.70642 -167.382 64.9972 -20.316 4.54188e-006 -4.6773e-006 -2.14914 116.427 -83.8914 115.578 -2.78954e-006 7.69505e-007 -2.5821 18.0031 63.2662 -16.0615 -8.86437 34.9349 3.86077 
53.5919 58.2576 -16.023 1.43422 -18.2208 1.53818 0.343328 0.038439 -0.269235 0.691196 4.07802 -0.601678 0.699503 5.723 -0.613982 -18.5108 34.4783 6.81577 14.2034 -15.2862 1.85171 79.2625 2.06518 -1.5262 87.268 17.5715 19.4168 8.98963e-007 -8.19859e-008 -3.47304e-006 8.24705 0.0636821 -0.827647 7.40818e-007 5.17591e-007 -3.00592 8.02913 -4.95144 0.697677 -89.8307 0.980289 3.11586 -79.4468 12.8708 -30.9534 2.86695e-006 -7.37637e-007 1.69601e-005 -0.536905 2.47164 0.876782 -8.83056e-006 -1.02705e-005 3.01308 -8.03022 -4.95138 -0.697663 176.414 65.6808 13.8587 180 1.52482e-005 177.863 -89.6827 84.7661 89.2621 -4.82919e-006 -3.06388e-006 2.43694 -18.0331 63.754 16.3841 8.68807 29.4545 -6.71814 -167.43 65.0299 -20.2901 4.54188e-006 -4.6773e-006 -2.1494 116.256 -83.9065 115.413 -2.78954e-006 7.69505e-007 -2.5812 18.0012 63.2503 -16.0502 -8.86327 34.9248 3.85979 
53.5938 58.255 -16.0298 1.46043 -18.1933 1.56367 0.332984 0.0312404 -0.267436 0.670451 4.06382 -0.595012 0.678644 5.70879 -0.606957 -18.4231 34.5867 6.80431 14.1516 -15.3552 1.8598 79.4079 2.07185 -1.54174 87.1062 17.5654 19.4628 8.98964e-007 -8.19859e-008 -3.47304e-006 8.25185 0.063355 -0.827981 7.40818e-007 5.17591e-007 -3.00592 8.02913 -4.95144 0.697677 -89.7681 0.978772 3.10954 -79.4994 12.8842 -30.9291 2.86695e-006 -7.37637e-007 1.69601e-005 -0.538195 2.43014 0.876412 -8.83056e-006 -1.02705e-005 3.01308 -8.03022 -4.95138 -0.697663 176.329 65.7279 13.928 180 1.52482e-005 177.867 -89.6954 84.7584 89.274 -4.82919e-006 -3.06388e-006 2.43463 -17.9641 63.716 16.3652 8.69181 29.4747 -6.73249 -167.478 65.0626 -20.2645 4.54188e-006 -4.6773e-006 -2.14967 116.084 -83.9217 115.248 -2.78954e-006 7.69505e-007 -2.58033 17.9998 63.2345 -16.0389 -8.86219 34.9149 3.85881 
53.5975 58.2412 -16.043 1.48712 -18.1659 1.58944 0.322492 0.0237611 -0.265655 0.649426 4.04905 -0.588324 0.657502 5.69404 -0.599906 -18.3338 34.6984 6.79306 14.0987 -15.4253 1.86815 79.5555 2.07853 -1.55755 86.9418 17.5591 19.5095 8.98964e-007 -8.19859e-008 -3.47304e-006 8.2568 0.0629529 -0.828366 7.40818e-007 5.17591e-007 -3.00592 8.02913 -4.95144 0.697677 -89.7068 0.977906 3.10314 -79.5501 12.8959 -30.9048 2.86695e-006 -7.37637e-007 1.69601e-005 -0.540362 2.3882 0.876063 -8.83056e-006 -1.02705e-005 3.01308 -8.03022 -4.95138 -0.697663 176.242 65.7746 13.999 180 1.52483e-005 177.871 -89.7087 84.7508 89.2865 -4.82919e-006 -3.06388e-006 2.4323 -17.8946 63.6777 16.346 8.69603 29.4971 -6.74868 -167.527 65.0952 -20.2392 4.54188e-006 -4.6773e-006 -2.14993 115.911 -83.9371 115.082 -2.78954e-006 7.69505e-007 -2.57946 17.9987 63.2185 -16.0275 -8.86112 34.905 3.85783 
53.5987 58.2401 -16.0499 1.51408 -18.1384 1.61538 0.311915 0.0161213 -0.263885 0.62824 4.03397 -0.581623 0.636201 5.67896 -0.592839 -18.2437 34.812 6.78193 14.0452 -15.4958 1.87666 79.7044 2.08521 -1.57351 86.7758 17.5527 19.5567 8.98963e-007 -8.19859e-008 -3.47304e-006 8.26184 0.0625081 -0.828779 7.40818e-007 5.17591e-007 -3.00592 8.02913 -4.95144 0.697677 -89.6461 0.977413 3.0967 -79.5997 12.9067 -30.8805 2.86695e-006 -7.37637e-007 1.69601e-005 -0.543031 2.346 0.875726 -8.83056e-006 -1.02705e-005 3.01308 -8.03022 -4.95138 -0.697663 176.154 65.8211 14.0711 180 1.52483e-005 177.875 -89.7222 84.7433 89.2992 -4.82919e-006 -3.06388e-006 2.42996 -17.825 63.6392 16.3268 8.70052 29.521 -6.76592 -167.576 65.1278 -20.214 4.54188e-006 -4.6773e-006 -2.15019 115.738 -83.9524 114.916 -2.78954e-006 7.69505e-007 -2.57861 17.9977 63.2026 -16.0161 -8.86005 34.8952 3.85684 
53.6018 58.2326 -16.0617 1.54109 -18.1109 1.64134 0.301317 0.00844144 -0.262117 0.607018 4.01881 -0.574918 0.614863 5.6638 -0.585768 -18.1532 34.926 6.77083 13.9915 -15.5665 1.88522 79.8535 2.09188 -1.58951 86.6094 17.5463 19.6039 8.98963e-007 -8.19859e-008 -3.47304e-006 8.2669 0.0620525 -0.829199 7.40818e-007 5.17591e-007 -3.00592 8.02913 -4.95144 0.697677 -89.5856 0.977012 3.09024 -79.649 12.9172 -30.8561 2.86695e-006 -7.37637e-007 1.69601e-005 -0.545826 2.30374 0.875393 -8.83056e-006 -1.02705e-005 3.01308 -8.03022 -4.95138 -0.697663 176.066 65.8676 14.1437 180 1.52483e-005 177.879 -89.7357 84.7357 89.3119 -4.82919e-006 -3.06388e-006 2.42762 -17.7553 63.6006 16.3076 8.70509 29.5451 -6.78344 -167.626 65.1603 -20.1888 4.54188e-006 -4.6773e-006 -2.15046 115.564 -83.9678 114.749 -2.78954e-006 7.69505e-007 -2.57775 17.9968 63.1867 -16.0046 -8.85899 34.8854 3.85586 
53.6026 58.2289 -16.0701 1.56792 -18.0834 1.66722 0.290763 0.000841768 -0.260344 0.585881 4.00381 -0.568221 0.59361 5.64881 -0.578706 -18.0632 35.0391 6.75967 13.9382 -15.6369 1.89371 80.002 2.09856 -1.60544 86.4438 17.54 19.6509 8.98963e-007 -8.19859e-008 -3.47304e-006 8.27192 0.0616184 -0.829605 7.40818e-007 5.17591e-007 -3.00592 8.02913 -4.95144 0.697677 -89.5248 0.976425 3.08381 -79.699 12.9282 -30.8318 2.86695e-006 -7.37637e-007 1.69601e-005 -0.54837 2.2616 0.875054 -8.83056e-006 -1.02705e-005 3.01308 -8.03022 -4.95138 -0.697663 175.978 65.9141 14.2161 180 1.52484e-005 177.882 -89.7491 84.7281 89.3245 -4.82919e-006 -3.06388e-006 2.42529 -17.6859 63.5621 16.2886 8.70955 29.5686 -6.80045 -167.675 65.1929 -20.1634 4.54188e-006 -4.6773e-006 -2.15072 115.389 -83.983 114.581 -2.78954e-006 7.69505e-007 -2.57689 17.9959 63.1708 -15.9932 -8.85792 34.8756 3.85487 
53.6063 58.2193 -16.0823 1.59436 -18.056 1.69288 0.280315 -0.00655736 -0.258558 0.56495 3.98921 -0.56154 0.572564 5.63421 -0.571664 -17.9742 35.1499 6.74834 13.8857 -15.7067 1.90202 80.149 2.10524 -1.62117 86.2801 17.5337 19.6974 8.98964e-007 -8.19859e-008 -3.47304e-006 8.27683 0.0612377 -0.829975 7.40818e-007 5.17591e-007 -3.00592 8.02913 -4.95144 0.697677 -89.4631 0.975373 3.07743 -79.7502 12.9404 -30.8075 2.86695e-006 -7.37637e-007 1.69601e-005 -0.550289 2.21979 0.874701 -8.83056e-006 -1.02705e-005 3.01308 -8.03022 -4.95138 -0.697663 175.89 65.9607 14.2878 180 1.52484e-005 177.886 -89.7621 84.7205 89.3367 -4.82919e-006 -3.06388e-006 2.42297 -17.6168 63.5239 16.2697 8.7137 29.5904 -6.81615 -167.724 65.2255 -20.1378 4.54188e-006 -4.6773e-006 -2.15098 115.213 -83.9981 114.412 -2.78954e-006 7.69505e-007 -2.57602 17.9947 63.1549 -15.9819 -8.85685 34.8657 3.85389 
53.6072 58.216 -16.091 1.62019 -18.0285 1.7182 0.270037 -0.0136356 -0.256751 0.544348 3.97524 -0.554886 0.551849 5.62024 -0.564653 -17.8868 35.2569 6.73674 13.8344 -15.7753 1.91004 80.2936 2.11191 -1.6366 86.1195 17.5276 19.7431 8.98963e-007 -8.19859e-008 -3.47304e-006 8.28156 0.0609427 -0.830288 7.40818e-007 5.17591e-007 -3.00592 8.02913 -4.95144 0.697677 -89.4 0.973577 3.07114 -79.8036 12.9546 -30.7832 2.86695e-006 -7.37637e-007 1.69601e-005 -0.551207 2.17848 0.874325 -8.83056e-006 -1.02705e-005 3.01308 -8.03022 -4.95138 -0.697663 175.804 66.0077 14.3581 180 1.52484e-005 177.89 -89.7745 84.7129 89.3482 -4.82919e-006 -3.06388e-006 2.42065 -17.5484 63.486 16.2512 8.71732 29.6095 -6.82975 -167.773 65.2582 -20.1118 4.54188e-006 -4.6773e-006 -2.15124 115.036 -84.013 114.241 -2.78954e-006 7.69505e-007 -2.57514 17.9933 63.139 -15.9707 -8.85576 34.8557 3.85291 
53.6065 58.2104 -16.1048 1.64519 -18.0011 1.74305 0.259994 -0.0202727 -0.254914 0.524197 3.96214 -0.548267 0.531585 5.60715 -0.557686 -17.8016 35.3588 6.72479 13.7849 -15.8424 1.91765 80.4347 2.11859 -1.65161 85.9631 17.5217 19.7877 8.98963e-007 -8.19859e-008 -3.47304e-006 8.28605 0.0607654 -0.830521 7.40818e-007 5.17591e-007 -3.00592 8.02913 -4.95144 0.697677 -89.3351 0.970758 3.06498 -79.86 12.9715 -30.7589 2.86695e-006 -7.37637e-007 1.69601e-005 -0.550747 2.13786 0.873918 -8.83056e-006 -1.02705e-005 3.01308 -8.03022 -4.95138 -0.697663 175.721 66.055 14.4265 180 1.52485e-005 177.894 -89.786 84.7052 89.3589 -4.82919e-006 -3.06388e-006 2.41836 -17.4807 63.4487 16.2331 8.72021 29.6249 -6.84047 -167.821 65.291 -20.0852 4.54188e-006 -4.6773e-006 -2.15151 114.858 -84.0276 114.069 -2.78954e-006 7.69505e-007 -2.57424 17.9914 63.1231 -15.9596 -8.85467 34.8457 3.85194 
